<?xml version="1.0" standalone="no"?>
<svg xmlns="http://www.w3.org/2000/svg" xmlns:xlink="http://www.w3.org/1999/xlink" width="1091pt" height="351pt" viewBox="0.00 0.00 1091.44 351">
<g id="graph0" class="graph" transform="translate(149.90359552599972,331.49507249958907) scale(0.7578582832552)" data-name="RNA">

<polygon fill="white" stroke="none" points="-4,4 -4,-347 1087.44,-347 1087.44,4 -4,4"/>
<g id="clust2" class="cluster" data-name="cluster_hidden">

<polygon fill="#004d61" stroke="#004d61" points="673.35,-8 673.35,-335 834.15,-335 834.15,-8 673.35,-8"/>
<text text-anchor="middle" x="753.75" y="-316.6" font-family="Arial" font-size="16.00" fill="rgb(255, 255, 255)">Capas ocultas</text>
</g>
<g id="clust3" class="cluster" data-name="cluster_output">

<polygon fill="#a6a6a6" stroke="#a6a6a6" points="854.15,-109 854.15,-234 1075.44,-234 1075.44,-109 854.15,-109"/>
<text text-anchor="middle" x="964.79" y="-215.6" font-family="Arial" font-size="16.00" fill="rgb(30, 58, 95)">Capa de salida</text>
</g>
<g id="clust1" class="cluster" data-name="cluster_input">

<polygon fill="#0492c2" stroke="#0492c2" points="159.18,-102 159.18,-281 653.35,-281 653.35,-102 159.18,-102"/>
<text text-anchor="middle" x="406.26" y="-262.6" font-family="Arial" font-size="16.00" fill="rgb(30, 58, 95)">Capa de entrada</text>
</g>
<!-- param -->
<g id="node3" class="node" pointer-events="visible" data-name="param">

<ellipse fill="rgb(255, 255, 255)" stroke="rgb(30, 58, 95)" cx="293.48" cy="-216" rx="126.1" ry="29.33"/>
<text text-anchor="middle" x="293.48" y="-220.2" font-family="Arial" font-size="14.00" fill="rgb(30, 58, 95)">Parámetros de estimación</text>
<text text-anchor="middle" x="293.48" y="-203.4" font-family="Arial" font-size="14.00" fill="rgb(30, 58, 95)">(tipo + valor)</text>
</g>
<!-- input -->

<!-- param&#45;&gt;input -->

<!-- elementos -->

<!-- elementos&#45;&gt;input -->
<g id="node4" class="node" pointer-events="visible" data-name="elem" data-comment="elementos-&gt;input">

<ellipse fill="white" stroke="#1e3a5f" cx="293.48" cy="-139" rx="98.01" ry="29.33"/>
<text text-anchor="middle" x="293.48" y="-143.2" font-family="Arial" font-size="14.00" fill="#1e3a5f">Tipos de elementos</text>
<text text-anchor="middle" x="293.48" y="-126.4" font-family="Arial" font-size="14.00" fill="#1e3a5f">(cantidad estimada)</text>
</g>
<!-- hidden1 -->
<g id="node6" class="node" pointer-events="visible" data-name="hidden1">

<ellipse fill="rgb(255, 255, 255)" stroke="rgb(30, 58, 95)" cx="753.75" cy="-57" rx="72.31" ry="41.09"/>
<text text-anchor="middle" x="753.75" y="-69.6" font-family="Arial" font-size="14.00" fill="rgb(30, 58, 95)">Capa oculta 1</text>
<text text-anchor="middle" x="753.75" y="-52.8" font-family="Arial" font-size="14.00" fill="rgb(30, 58, 95)">128 neuronas</text>
<text text-anchor="middle" x="753.75" y="-36" font-family="Arial" font-size="14.00" fill="rgb(30, 58, 95)">ReLU + L2</text>
</g><g id="edge2" class="edge" data-name="scaler-&gt;elem" data-comment="hidden1">

<path fill="none" stroke="black" d="M121.85,-139C140.56,-139 162.16,-139 183.56,-139"/>
<polygon fill="black" stroke="black" points="183.55,-142.5 193.55,-139 183.55,-135.5 183.55,-142.5"/>
</g>
<!-- input&#45;&gt;hidden1 -->
<g id="node5" class="node" pointer-events="visible" data-name="merge" data-comment="input-&gt;hidden1">

<ellipse fill="white" stroke="#1e3a5f" cx="550.56" cy="-158" rx="94.57" ry="18"/>
<text text-anchor="middle" x="550.56" y="-153.8" font-family="Arial" font-size="14.00" fill="#1e3a5f">Entrada combinada</text>
</g>
<!-- hidden2 -->
<g id="node7" class="node" pointer-events="visible" data-name="hidden2">

<ellipse fill="rgb(255, 255, 255)" stroke="rgb(30, 58, 95)" cx="753.75" cy="-158" rx="72.31" ry="41.09"/>
<text text-anchor="middle" x="753.75" y="-170.6" font-family="Arial" font-size="14.00" fill="rgb(30, 58, 95)">Capa oculta 2</text>
<text text-anchor="middle" x="753.75" y="-153.8" font-family="Arial" font-size="14.00" fill="rgb(30, 58, 95)">64 neuronas</text>
<text text-anchor="middle" x="753.75" y="-137" font-family="Arial" font-size="14.00" fill="rgb(30, 58, 95)">ReLU + L2</text>
</g><g id="edge3" class="edge" data-name="param-&gt;merge" data-comment="hidden2">

<path fill="none" stroke="black" d="M384.77,-195.47C415.01,-188.59 448.31,-181.02 477.01,-174.5"/>
<polygon fill="black" stroke="black" points="477.73,-177.92 486.71,-172.29 476.18,-171.1 477.73,-177.92"/>
</g>
<!-- input&#45;&gt;hidden2 -->
<g id="edge4" class="edge" data-name="elem-&gt;merge" data-comment="input-&gt;hidden2">

<path fill="none" stroke="black" d="M389.1,-146.05C409.1,-147.54 430.27,-149.11 450.44,-150.62"/>
<polygon fill="black" stroke="black" points="450.11,-154.1 460.34,-151.35 450.63,-147.12 450.11,-154.1"/>
</g>
<!-- hidden3 -->
<g id="node8" class="node" pointer-events="visible" data-name="hidden3">

<ellipse fill="rgb(255, 255, 255)" stroke="rgb(30, 58, 95)" cx="753.75" cy="-259" rx="72.31" ry="41.09"/>
<text text-anchor="middle" x="753.75" y="-271.6" font-family="Arial" font-size="14.00" fill="rgb(30, 58, 95)">Capa oculta 3</text>
<text text-anchor="middle" x="753.75" y="-254.8" font-family="Arial" font-size="14.00" fill="rgb(30, 58, 95)">32 neuronas</text>
<text text-anchor="middle" x="753.75" y="-238" font-family="Arial" font-size="14.00" fill="rgb(30, 58, 95)">ReLU + L2</text>
</g>
<!-- input&#45;&gt;hidden3 -->
<g id="edge5" class="edge" data-name="merge-&gt;hidden1" data-comment="input-&gt;hidden3">

<path fill="none" stroke="black" d="M585.69,-140.87C613.85,-126.73 654.59,-106.28 688.79,-89.11"/>
<polygon fill="black" stroke="black" points="689.99,-92.42 697.36,-84.81 686.85,-86.17 689.99,-92.42"/>
</g>
<!-- output -->
<g id="node9" class="node" pointer-events="visible" data-name="output">

<ellipse fill="rgb(255, 255, 255)" stroke="rgb(30, 58, 95)" cx="964.79" cy="-158" rx="102.78" ry="41.09"/>
<text text-anchor="middle" x="964.79" y="-170.6" font-family="Arial" font-size="14.00" fill="rgb(30, 58, 95)">1 neurona</text>
<text text-anchor="middle" x="964.79" y="-153.8" font-family="Arial" font-size="14.00" fill="rgb(30, 58, 95)">ReLU</text>
<text text-anchor="middle" x="964.79" y="-137" font-family="Arial" font-size="14.00" fill="rgb(30, 58, 95)">Adam + MSE + MAE</text>
</g>
<!-- hidden1&#45;&gt;output -->
<g id="edge9" class="edge" data-name="hidden1-&gt;output">

<path fill="none" stroke="black" d="M809.67,-83.54C833.59,-95.09 862.03,-108.83 887.92,-121.34"/>
<polygon fill="black" stroke="black" points="886.19,-124.39 896.72,-125.59 889.24,-118.09 886.19,-124.39"/>
</g><g id="edge6" class="edge" data-name="merge-&gt;hidden2" data-comment="hidden1-&gt;output">

<path fill="none" stroke="black" d="M645.38,-158C653.53,-158 661.73,-158 669.78,-158"/>
<polygon fill="black" stroke="black" points="669.53,-161.5 679.53,-158 669.53,-154.5 669.53,-161.5"/>
</g>
<!-- hidden2&#45;&gt;output -->
<g id="edge10" class="edge" data-name="hidden2-&gt;output">

<path fill="none" stroke="black" d="M826.4,-158C834.11,-158 842.09,-158 850.14,-158"/>
<polygon fill="black" stroke="black" points="850.03,-161.5 860.03,-158 850.03,-154.5 850.03,-161.5"/>
</g>
<!-- hidden3&#45;&gt;output -->
<g id="edge11" class="edge" data-name="hidden3-&gt;output">

<path fill="none" stroke="black" d="M809.67,-232.46C833.59,-220.91 862.03,-207.17 887.92,-194.66"/>
<polygon fill="black" stroke="black" points="889.24,-197.91 896.72,-190.41 886.19,-191.61 889.24,-197.91"/>
</g><g id="edge7" class="edge" data-name="merge-&gt;hidden3" data-comment="hidden3-&gt;output">

<path fill="none" stroke="black" d="M585.69,-175.13C613.85,-189.27 654.59,-209.72 688.79,-226.89"/>
<polygon fill="black" stroke="black" points="686.85,-229.83 697.36,-231.19 689.99,-223.58 686.85,-229.83"/>
</g>
<!-- onehot -->
<g id="node1" class="node" pointer-events="visible" data-name="onehot">

<polygon fill="#0492c2" stroke="#1e3a5f" points="131.27,-234 -0.09,-234 -0.09,-198 131.27,-198 131.27,-234"/>
<text text-anchor="middle" x="65.59" y="-211.8" font-family="Arial" font-size="14.00" fill="rgb(255, 255, 255)">One-Hot Encoding</text>
</g>
<!-- onehot&#45;&gt;param -->
<g id="edge1" class="edge" data-name="onehot-&gt;param">

<path fill="none" stroke="black" d="M131.62,-216C139.33,-216 147.4,-216 155.65,-216"/>
<polygon fill="black" stroke="black" points="155.48,-219.5 165.48,-216 155.48,-212.5 155.48,-219.5"/>
</g>
<!-- scaler -->
<g id="node2" class="node" pointer-events="visible" data-name="scaler">

<polygon fill="#0492c2" stroke="#1e3a5f" points="121.59,-157 9.59,-157 9.59,-121 121.59,-121 121.59,-157"/>
<text text-anchor="middle" x="65.59" y="-134.8" font-family="Arial" font-size="14.00" fill="rgb(255, 255, 255)">StandardScaler</text>
</g>
<!-- scaler&#45;&gt;elementos -->

<!-- dropout -->
<g id="node10" class="node" pointer-events="visible" data-name="dropout">

<polygon fill="#0492c2" stroke="#1e3a5f" points="600.04,-75 501.08,-75 501.08,-39 600.04,-39 600.04,-75"/>
<text text-anchor="middle" x="550.56" y="-52.8" font-family="Arial" font-size="14.00" fill="rgb(255, 255, 255)">Dropout (0.3)</text>
</g>
<!-- dropout&#45;&gt;hidden1 -->
<g id="edge8" class="edge" data-name="dropout-&gt;hidden1">

<path fill="none" stroke="black" d="M600.52,-57C621.31,-57 646.14,-57 669.65,-57"/>
<polygon fill="black" stroke="black" points="669.55,-60.5 679.55,-57 669.55,-53.5 669.55,-60.5"/>
</g>
</g>
</svg>